<svg width="176" height="60" viewBox="0 0 176 60" fill="none" xmlns="http://www.w3.org/2000/svg">
<path d="M87.71 8.22003C90.17 8.22003 91.16 8.71002 91.16 8.71002L92.64 2.47003C92.64 2.47003 93.79 7.23 94.28 11.5C94.77 15.77 102.33 12.98 108.73 11.66C115.14 10.35 116.45 0 116.45 0H175.74C175.74 0 139.93 10.84 148.97 34.66C148.97 34.66 96.08 26.61 87.87 59.63C79.66 26.62 26.77 34.66 26.77 34.66C35.8 10.84 0 0 0 0H59.29C59.29 0 60.6 10.35 67.01 11.66C73.42 12.97 80.97 15.77 81.46 11.5C81.95 7.23 83.1 2.47003 83.1 2.47003L84.58 8.71002C84.58 8.71002 85.57 8.22003 88.03 8.22003H87.71Z" fill="white"/>
</svg>
