<svg width="20" height="24" viewBox="0 0 20 24" fill="none" xmlns="http://www.w3.org/2000/svg">
<path fill-rule="evenodd" clip-rule="evenodd" d="M16.7411 8.02529C16.9723 6.73134 16.1093 5.71539 15.1085 4.9749C13.7071 3.94252 12.12 3.32714 10.4874 2.84949V19.9173C11.2115 19.2854 11.9355 18.5765 12.628 17.8538C14.1064 16.2212 15.4774 14.557 16.0473 12.5554C16.2786 11.6468 16.1547 10.6145 15.3852 9.99781C16.0486 9.4734 16.6488 8.82643 16.7411 8.02529ZM13.9232 13.9252C13.4152 14.8489 12.7215 15.6967 11.9052 16.4827L11.89 11.6001C12.4448 11.1995 13.0146 10.8457 13.7071 10.7838C13.9838 10.7838 14.2303 10.876 14.416 11.0921C15.0314 12.0613 14.3073 13.0773 13.9232 13.9252ZM15.3246 7.63988C15.1856 8.4107 14.3389 8.85676 13.7374 9.18025C13.1372 9.48857 12.5206 9.73497 11.8888 9.96622V4.9749C12.8592 5.26806 13.7374 5.76088 14.5689 6.34594C14.9543 6.66942 15.4787 7.06999 15.3246 7.63988Z" fill="#929292"/>
<path fill-rule="evenodd" clip-rule="evenodd" d="M9.22504 19.7934V2.7876L7.85401 3.49649V12.6161C7.79209 12.8776 7.97784 13.2782 7.68468 13.402C7.6076 13.4172 7.54568 13.3869 7.51535 13.325C6.93029 11.1225 6.68389 8.79613 6.57521 6.40914L6.52846 4.32922L5.21935 5.29968V5.85441C5.29643 8.05691 5.45059 10.2139 5.86632 12.2774L5.34318 12.8625C5.14353 12.5857 5.0197 12.2926 4.8807 11.9994C4.21856 10.243 3.97216 8.31848 3.87991 6.3308L2.74012 7.17742C2.84753 10.1962 3.41742 13.0457 5.25094 15.3101C5.60475 14.9095 5.95984 14.4938 6.31365 14.1084C6.49814 14.9247 6.75971 15.7107 7.06803 16.4802C7.57601 17.668 8.1459 18.8697 9.22504 19.7934Z" fill="#929292"/>
<path fill-rule="evenodd" clip-rule="evenodd" d="M19.7144 5.02164L17.666 4.51366L17.2958 3.12747L15.2007 2.63466L14.7698 1.12462L9.82526 0L4.97294 1.12462L4.54205 2.63466L2.44696 3.12747C2.30796 3.60512 2.18539 4.0676 2.06155 4.52883L0.0132178 5.02164C-0.140944 9.38114 1.06077 13.2162 3.23294 16.6356C4.82005 19.0845 7.20703 21.6724 9.82526 22.9512C11.5969 22.1046 13.1675 20.6868 14.5853 19.0997C18.0199 15.1268 19.8989 10.4742 19.7144 5.02164ZM13.6768 18.2075C12.5522 19.4712 11.2885 20.7184 9.87201 21.4424C8.51614 20.7651 7.33086 19.5937 6.25173 18.4085C3.44775 15.1281 1.5839 11.4611 1.27684 7.16348C1.24651 6.80967 1.23009 6.46975 1.24652 6.10077L2.98653 5.7002L3.38709 4.26726L5.52767 3.75928L5.54284 3.71253L5.92824 2.23409L9.81009 1.32554L13.8145 2.23409L14.1999 3.74412L16.3721 4.26726L16.7423 5.7002L18.4988 6.10077C18.4507 10.7825 16.5869 14.7098 13.6768 18.2075Z" fill="#929292"/>
<path fill-rule="evenodd" clip-rule="evenodd" d="M14.3225 22.7819C14.5537 22.7667 14.7079 22.6429 14.7079 22.3813C14.7079 22.0882 14.5234 21.9504 14.1683 21.9504H13.6136V23.4289H13.86V22.7971H14.0913L14.4767 23.4289H14.7382L14.3225 22.7819ZM13.8613 22.5974V22.1501H14.1544C14.2934 22.1501 14.4628 22.1804 14.4628 22.3662C14.4628 22.5658 14.3086 22.5974 14.1241 22.5974H13.8613Z" fill="#929292"/>
<path fill-rule="evenodd" clip-rule="evenodd" d="M14.138 21.4728C13.4443 21.4728 12.8744 22.0427 12.8744 22.7364C12.8744 23.4301 13.4443 24 14.138 24C14.8317 24 15.4016 23.4301 15.4016 22.7364C15.4016 22.0427 14.8317 21.4728 14.138 21.4728ZM14.138 23.8762C13.5062 23.8762 12.9982 23.3682 12.9982 22.7364C12.9982 22.1046 13.5062 21.5966 14.138 21.5966C14.7698 21.5966 15.2778 22.1046 15.2778 22.7364C15.2778 23.3669 14.7698 23.8762 14.138 23.8762Z" fill="#929292"/>
</svg>
